# xmcd
#
# Track frame offsets:
#	150
#	14160
#	25740
#	44718
#	62702
#	73138
#	93361
#	109319
#	120488
#	141526
#	158998
#	177324
#	197470
#	211265
#
# Disc length: 3026 seconds
#
# Revision: 1
# Processed by: cddbd v1.5.2PL0 Copyright (c) Steve Scherf et al.
# Submitted via: audiograbber 1.83.01
#
DISCID=d20bd00e
DTITLE=Ben Coulter - "Cuzz" Vol. 1 - Going down to Montrose
DYEAR=2009
DGENRE=Country
TTITLE0=Songwriter
TTITLE1=I had me a woman
TTITLE2=Someday I'm goin' home
TTITLE3=I wanna go out west
TTITLE4=Goin' down to Montrose
TTITLE5=Tryin to Fight the Devil (and singin country songs)
TTITLE6=My Sweet Lovin Woman
TTITLE7=10 Miles North of Louisiana
TTITLE8=I know where I'll be found
TTITLE9=When My Guitars all tuned (and it's time to play)
TTITLE10=I'm still wishin you were mine
TTITLE11=Born to be a bluesman
TTITLE12=I'm a razorback fan
TTITLE13=Old School
EXTD=
EXTT0=
EXTT1=
EXTT2=
EXTT3=
EXTT4=
EXTT5=
EXTT6=
EXTT7=
EXTT8=
EXTT9=
EXTT10=
EXTT11=
EXTT12=
EXTT13=
PLAYORDER=
